<svg id="Layer_1" data-name="Layer 1" xmlns="http://www.w3.org/2000/svg" viewBox="0 0 200 80"  width="150" height="64">
  <defs>
    <style>.cls-1{fill:#fff;}.cls-2{fill:#e2e2e2;isolation:isolate;opacity:0.36;}.cls-3{fill:#eaeaea;}</style>
  </defs>
  <path class="cls-1" d="M77,40.89a10.58,10.58,0,0,0-3.46-3A24.87,24.87,0,0,0,67,35.39l-1-.25c-6.19.88-12.54,1.85-19.23,3a9.36,9.36,0,0,0,1.44,1.23,21.64,21.64,0,0,0,6.67,2.72l.23.06.07,0,2.69.7,6.48,1.69q3.69.94,4.82,2.62a6.36,6.36,0,0,1,1.12,3.64,5.44,5.44,0,0,1-2.48,4.53q-2.48,1.83-7.08,1.83-8,0-10.62-4.52a8.62,8.62,0,0,1-1-2.62l-8.4,1.8.15.52a14.55,14.55,0,0,0,7,8.79,25.25,25.25,0,0,0,12.49,3q8.48,0,13.8-4.06a13.24,13.24,0,0,0,5.33-11.13A13.81,13.81,0,0,0,77,40.89Zm-12-6a184.08,184.08,0,0,0-18.2,3.21l18.25-3.2Z" transform="translate(-38.52 -14.65)"/>
  <path class="cls-1" d="M77.58,25a2.8,2.8,0,0,1-1.76,2.67c-1.78.78-4.87.71-6.46-.63q-1.9-5.46-8.86-5.45a9.77,9.77,0,0,0-6.17,1.68,5.26,5.26,0,0,0-2.13,4.29q0,4.13,6.68,5.77L65,34.89a184.08,184.08,0,0,0-18.2,3.21l18.25-3.2,1,.24c-6.19.88-12.54,1.85-19.23,3a11.56,11.56,0,0,1-2.16-3.18,14,14,0,0,1-1.35-6.08,12.62,12.62,0,0,1,4.78-10.32q4.78-3.89,12.23-3.88a22.42,22.42,0,0,1,11.06,2.7A12.18,12.18,0,0,1,77.58,25Z" transform="translate(-38.52 -14.65)"/>
  <path class="cls-1" d="M123.82,26.69c-18.5,4.54-33.88,7.62-50.29,11.18L68.25,39C64,40,59.55,41,55,42l0,0q-3.74.87-7.64,1.83c.35,1.66,2,6,2.87,8.74.24.75.43,1.38.52,1.83l-2.35-.74c-2,1.34-3.32,1.58-5.32,2.92l-2.08-4.31L40.78,52c-1-6.23-3.39-9.54-1.63-11.49a5.53,5.53,0,0,1,3.14-1.63l4.53-.78c6.69-1.12,13-2.09,19.23-3C85.14,32.4,102.66,30.39,123.82,26.69Z" transform="translate(-38.52 -14.65)"/>
  <path class="cls-2" d="M65.41,34.84l-.33.06L46.83,38.1A184.08,184.08,0,0,1,65,34.89Z" transform="translate(-38.52 -14.65)"/>
  <path class="cls-3" d="M54.92,42l18-4.4a30.07,30.07,0,0,0-8,2.94c-2.09,1.14-3.77,2.4-6.26,2.38A16.73,16.73,0,0,1,54.92,42Z" transform="translate(-38.52 -14.65)"/>
  <path class="cls-1" d="M80.77,43.55V42.28h7.79v1.27H85.39V55.21H83.94V43.55Z" transform="translate(-38.52 -14.65)"/>
  <path class="cls-1" d="M89.77,42.28h1.42v7.8a14.14,14.14,0,0,0,.06,1.73,2.67,2.67,0,0,0,.49,1.28,2.87,2.87,0,0,0,1.19.86,4,4,0,0,0,1.61.35A3.46,3.46,0,0,0,95.89,54,2.9,2.9,0,0,0,97,53.27a3.09,3.09,0,0,0,.64-1.17,8.52,8.52,0,0,0,.15-2v-7.8h1.42v7.8a8.66,8.66,0,0,1-.37,2.8,3.85,3.85,0,0,1-1.49,1.86,4.55,4.55,0,0,1-2.7.79,5.55,5.55,0,0,1-3-.75,3.62,3.62,0,0,1-1.64-2,9.68,9.68,0,0,1-.26-2.72Z" transform="translate(-38.52 -14.65)"/>
  <path class="cls-1" d="M101.8,55.21V42.28h3a16.45,16.45,0,0,1,4.63.47A6.08,6.08,0,0,1,112.61,45a6.46,6.46,0,0,1,1.16,3.88,6.39,6.39,0,0,1-.92,3.42,5.77,5.77,0,0,1-2.4,2.18,9.78,9.78,0,0,1-4.13.7H101.8ZM103.16,54h1.64a17,17,0,0,0,4.09-.33A4.72,4.72,0,0,0,111.41,52a4.93,4.93,0,0,0,.92-3,5.15,5.15,0,0,0-1-3.2,5,5,0,0,0-2.77-1.82,18.19,18.19,0,0,0-4.4-.37h-1V54Z" transform="translate(-38.52 -14.65)"/>
  <path class="cls-1" d="M115.65,42.28h8.15v1.27h-6.73V47.6h6.67v1.27h-6.67V54h6.67v1.27h-8.09Z" transform="translate(-38.52 -14.65)"/>
  <path class="cls-1" d="M125.37,55.21V42.28h.31l9.46,9.91V42.28h1.4V55.21h-.32l-9.39-9.79v9.79Z" transform="translate(-38.52 -14.65)"/>
  <path class="cls-1" d="M137.71,43.55V42.28h7.79v1.27h-3.17V55.21h-1.45V43.55Z" transform="translate(-38.52 -14.65)"/>
  <path class="cls-1" d="M145.19,52.8l1.21-.66c.85,1.42,1.83,2.14,2.95,2.14a3.06,3.06,0,0,0,1.34-.3,2.27,2.27,0,0,0,1-.81,2,2,0,0,0,.33-1.08,2.06,2.06,0,0,0-.48-1.27,11,11,0,0,0-2.44-2.07A11.42,11.42,0,0,1,146.85,47a3.06,3.06,0,0,1-.75-2,2.85,2.85,0,0,1,.44-1.54,3,3,0,0,1,1.25-1.09,4,4,0,0,1,1.75-.4,4,4,0,0,1,1.88.45,6.22,6.22,0,0,1,1.85,1.67l-1.16.8a5.17,5.17,0,0,0-1.37-1.27,2.61,2.61,0,0,0-1.23-.31,2.12,2.12,0,0,0-1.41.47,1.47,1.47,0,0,0-.55,1.17,1.86,1.86,0,0,0,.19.82,3,3,0,0,0,.71.86c.19.16.8.59,1.84,1.29a9.79,9.79,0,0,1,2.53,2.21,3.31,3.31,0,0,1,.69,1.94,3.16,3.16,0,0,1-1.17,2.44,4.18,4.18,0,0,1-2.86,1,4.5,4.5,0,0,1-2.35-.63A6,6,0,0,1,145.19,52.8Z" transform="translate(-38.52 -14.65)"/>
</svg>

