<?xml version="1.0" encoding="utf-8"?>
<!-- Generator: Adobe Illustrator 26.0.0, SVG Export Plug-In . SVG Version: 6.00 Build 0)  -->
<svg version="1.1" xmlns="http://www.w3.org/2000/svg" xmlns:xlink="http://www.w3.org/1999/xlink" x="0px" y="0px"
	 viewBox="0 0 200 80"  width="150" height="64" style="enable-background:new 0 0 200 80;" xml:space="preserve">
<style type="text/css">
	.st0{fill:#1B2DBE;}
	.st1{fill:url(#SVGID_1_);}
	.st2{opacity:0.36;fill:#0E2296;}
	.st3{fill:#0E2296;}
</style>
<g id="Layer_2">
</g>
<g id="Layer_3">
</g>
<g id="Layer_7">
</g>
<g id="Layer_6">
</g>
<g id="Layer_4">
</g>
<g id="Layer_5">
	<g>
		<g>
			<path class="st0" d="M79.52,48.92c0,4.71-1.78,8.42-5.33,11.13s-8.15,4.06-13.8,4.06c-4.75,0-8.92-1-12.49-2.99
				c-3.58-1.99-5.95-5.1-7.12-9.31l8.4-1.8c1.01,4.76,4.87,7.14,11.6,7.14c3.07,0,5.43-0.61,7.08-1.83
				c1.66-1.22,2.48-2.73,2.48-4.53c0-1.32-0.37-2.53-1.12-3.64c-0.75-1.12-2.36-1.99-4.82-2.62l-9.17-2.39
				c-3.15-0.82-5.47-1.75-6.97-2.8c-1.5-1.04-2.7-2.51-3.6-4.41c-0.9-1.9-1.35-3.92-1.35-6.08c0-4.29,1.59-7.73,4.78-10.32
				c3.19-2.59,7.26-3.88,12.23-3.88c4.13,0,7.81,0.9,11.06,2.7c3.25,1.81,5.31,4.36,6.2,7.67c-0.13,0.36,0.13,1.84-1.76,2.67
				c-1.78,0.78-4.87,0.71-6.46-0.63c-1.27-3.64-4.22-5.45-8.86-5.45c-2.7,0-4.75,0.56-6.17,1.68c-1.42,1.13-2.13,2.56-2.13,4.29
				c0,2.75,2.23,4.67,6.68,5.77l8.16,2.04c4.94,1.24,8.26,3.07,9.95,5.5C78.67,43.32,79.52,45.99,79.52,48.92z"/>
		</g>
		<linearGradient id="SVGID_1_" gradientUnits="userSpaceOnUse" x1="38.5156" y1="41.6626" x2="123.8211" y2="41.6626">
			<stop  offset="0.8564" style="stop-color:#1B2DBE"/>
			<stop  offset="1" style="stop-color:#FFFFFF;stop-opacity:0"/>
		</linearGradient>
		<path class="st1" d="M40.78,52.01c-1.03-6.23-3.39-9.53-1.62-11.48c0.43-0.47,1.34-1.27,3.14-1.63
			c29.54-5.18,51.99-7.03,81.53-12.2c-27.88,6.84-48.66,10.36-76.53,17.2c0.45,2.11,2.94,8.46,3.39,10.56l-2.35-0.73
			c-2,1.33-3.32,1.58-5.32,2.91"/>
		<path class="st2" d="M46.83,38.1l18.59-3.26C65.41,34.84,56.28,35.89,46.83,38.1z"/>
		<path class="st3" d="M54.92,42.02l18.01-4.4c-3.64,0.8-6.27,2-8,2.94c-2.09,1.14-3.77,2.4-6.26,2.38
			C57.88,42.94,55.32,42.23,54.92,42.02z"/>
		<g>
			<path d="M80.68,42.28h7.86v2.43h-2.59v10.5H83.2v-10.5h-2.52V42.28z"/>
			<path d="M89.4,42.28h2.72v8.36c0,0.72,0.07,1.23,0.21,1.53c0.14,0.3,0.37,0.54,0.69,0.72c0.32,0.18,0.7,0.27,1.16,0.27
				c0.48,0,0.89-0.1,1.23-0.3c0.34-0.2,0.58-0.45,0.72-0.76c0.13-0.31,0.2-0.89,0.2-1.76v-8.05h2.72v7.71c0,1.3-0.08,2.2-0.24,2.71
				s-0.47,0.99-0.92,1.46c-0.45,0.47-0.98,0.82-1.57,1.04c-0.59,0.23-1.28,0.34-2.07,0.34c-1.03,0-1.93-0.22-2.69-0.65
				c-0.76-0.43-1.31-0.97-1.64-1.62s-0.49-1.74-0.49-3.28V42.28z"/>
			<path d="M101.29,42.28h3.21c2.07,0,3.6,0.23,4.61,0.7c1,0.47,1.83,1.22,2.48,2.27s0.98,2.27,0.98,3.67c0,1-0.18,1.91-0.55,2.75
				s-0.87,1.53-1.51,2.08s-1.33,0.93-2.08,1.14s-2.04,0.32-3.88,0.32h-3.26V42.28z M103.98,44.66v8.16h1.26
				c1.24,0,2.13-0.13,2.69-0.39c0.56-0.26,1.01-0.69,1.37-1.3c0.35-0.61,0.53-1.36,0.53-2.25c0-1.37-0.42-2.44-1.27-3.19
				c-0.76-0.68-1.98-1.02-3.66-1.02H103.98z"/>
			<path d="M114.27,42.28h7.76v2.41h-5.08v2.34h5.08v2.36h-5.08v3.4h5.08v2.42h-7.76V42.28z"/>
			<path d="M123.67,42.28h2.6l6.09,8.51v-8.51h2.71v12.93h-2.6l-6.08-8.48v8.48h-2.71V42.28z"/>
			<path d="M136.02,42.28h7.86v2.43h-2.59v10.5h-2.75v-10.5h-2.52V42.28z"/>
			<path d="M152.31,44.04l-2,1.61c-0.7-0.89-1.42-1.34-2.15-1.34c-0.35,0-0.65,0.09-0.87,0.26s-0.34,0.37-0.34,0.58
				s0.08,0.42,0.24,0.62c0.22,0.26,0.88,0.81,1.99,1.66c1.03,0.79,1.66,1.28,1.88,1.49c0.55,0.5,0.94,0.99,1.17,1.45
				c0.23,0.46,0.34,0.96,0.34,1.51c0,1.06-0.4,1.94-1.21,2.63s-1.86,1.04-3.16,1.04c-1.01,0-1.9-0.23-2.65-0.68
				c-0.75-0.45-1.4-1.16-1.93-2.13l2.28-1.25c0.68,1.14,1.47,1.71,2.36,1.71c0.46,0,0.85-0.12,1.17-0.37s0.47-0.53,0.47-0.85
				c0-0.29-0.12-0.59-0.36-0.88s-0.77-0.74-1.58-1.34c-1.55-1.15-2.55-2.03-3-2.66c-0.45-0.62-0.68-1.25-0.68-1.87
				c0-0.9,0.38-1.67,1.13-2.31c0.75-0.64,1.68-0.96,2.78-0.96c0.71,0,1.39,0.15,2.03,0.45S151.56,43.25,152.31,44.04z"/>
		</g>
	</g>
</g>
</svg>
